<?xml version="1.0" encoding="UTF-8" standalone="no"?>
<svg width="48px" height="36px" viewBox="0 0 48 36" version="1.1" xmlns="http://www.w3.org/2000/svg" xmlns:xlink="http://www.w3.org/1999/xlink" xmlns:sketch="http://www.bohemiancoding.com/sketch/ns">
    <!-- Generator: Sketch 3.1 (8751) - http://www.bohemiancoding.com/sketch -->
    <title>logo</title>
    <desc>Created with Sketch.</desc>
    <defs></defs>
    <g id="Welcome" stroke="none" stroke-width="1" fill="none" fill-rule="evenodd" sketch:type="MSPage">
        <g id="Desktop-HD" sketch:type="MSArtboardGroup" transform="translate(-81.000000, -14.000000)" fill="#231814">
            <g id="logo" sketch:type="MSLayerGroup" transform="translate(81.000000, 14.000000)">
                <g id="木才" sketch:type="MSShapeGroup">
                    <path d="M0.444218182,6.79542857 L22.9762909,6.79542857 L22.9762909,7.64485714 L0.444218182,7.64485714 L0.444218182,6.79542857 Z" id="Fill-1"></path>
                    <path d="M13.2392727,26.8714286 L10.6254545,27.408 L10.6254545,0.183428571 L13.2392727,0.183428571 L13.2392727,26.8714286" id="Fill-2"></path>
                    <path d="M13.1904,7.65428571 L22.9762909,20.7145714 L20.5387636,21.4491429 L13.1904,8.70771429 L13.1904,7.65428571" id="Fill-3"></path>
                    <path d="M10.6254545,7.65428571 L12.5978182,8.69142857 L0.826472727,22.9165714 L0.3936,22.3431429 L10.6254545,7.65428571" id="Fill-4"></path>
                    <path d="M25.9784727,6.83485714 L47.5269818,6.83485714 L47.5269818,7.65428571 L25.9784727,7.65428571 L25.9784727,6.83485714 Z" id="Fill-5"></path>
                    <path d="M38.9978182,27.18 L36.3796364,26.8397143 L36.3796364,0.183428571 L38.9978182,0.183428571 L38.9978182,27.18" id="Fill-6"></path>
                    <path d="M42.6571636,9.23314286 L44.6216727,11.0982857 L26.2254545,22.9165714 L25.9985455,22.2702857 L42.6571636,9.23314286" id="Fill-7"></path>
                </g>
                <g id="Group" transform="translate(0.000000, 32.000000)" sketch:type="MSShapeGroup">
                    <path d="M0.181527273,3.75142857 L0.181527273,-0.117714286 L0.956509091,-0.117714286 L2.04741818,2.87542857 L3.17061818,-0.117714286 L3.86269091,-0.117714286 L3.86269091,3.75142857 L3.3408,3.75142857 L3.3408,0.604 L2.25512727,3.49257143 L1.71490909,3.49257143 L0.660654545,0.596285714 L0.660654545,3.75142857 L0.181527273,3.75142857" id="Fill-9"></path>
                    <path d="M5.66225455,-0.117714286 L6.22167273,-0.117714286 L6.22167273,2.32428571 C6.22167273,2.71257143 6.29410909,2.99542857 6.44072727,3.17285714 C6.58647273,3.34942857 6.81949091,3.43771429 7.13890909,3.43771429 C7.45134545,3.43771429 7.67301818,3.35457143 7.80305455,3.18828571 C7.93396364,3.02114286 7.99941818,2.74 7.99941818,2.34228571 L7.99941818,-0.117714286 L8.48901818,-0.117714286 L8.48901818,2.33457143 C8.48901818,2.86257143 8.37818182,3.24742857 8.15738182,3.48742857 C7.93658182,3.72828571 7.58487273,3.84828571 7.10225455,3.84828571 C6.61090909,3.84828571 6.24785455,3.72314286 6.01309091,3.47457143 C5.7792,3.22514286 5.66225455,2.83942857 5.66225455,2.31914286 L5.66225455,-0.117714286" id="Fill-19"></path>
                    <path d="M11.9764364,3.84828571 C11.3637818,3.84828571 10.8916364,3.67171429 10.5573818,3.31857143 C10.224,2.96628571 10.0573091,2.46657143 10.0573091,1.81942857 C10.0573091,1.17485714 10.2266182,0.675142857 10.5669818,0.319428571 C10.9064727,-0.0362857143 11.3847273,-0.214571429 12.0026182,-0.214571429 C12.3560727,-0.214571429 12.7688727,-0.158 13.2427636,-0.044 L13.2427636,0.470285714 C12.7034182,0.287714286 12.288,0.196 11.9947636,0.196 C11.5671273,0.196 11.2363636,0.338285714 11.0016,0.622857143 C10.7677091,0.906571429 10.6507636,1.30685714 10.6507636,1.82457143 C10.6507636,2.31828571 10.7755636,2.70742857 11.0260364,2.992 C11.2765091,3.27657143 11.6177455,3.41971429 12.0506182,3.41971429 C12.4232727,3.41971429 12.8221091,3.30657143 13.248,3.082 L13.248,3.55257143 C12.8596364,3.74971429 12.4354909,3.84828571 11.9764364,3.84828571" id="Fill-20"></path>
                    <path d="M17.4650182,3.75142857 L17.0365091,2.67914286 L15.3669818,2.67914286 L14.9332364,3.75142857 L14.4148364,3.75142857 L15.9770182,-0.117714286 L16.5303273,-0.117714286 L18.0689455,3.75142857 L17.4650182,3.75142857 L17.4650182,3.75142857 Z M16.8741818,2.272 L16.2030545,0.604 L15.5293091,2.272 L16.8741818,2.272 L16.8741818,2.272 Z" id="Fill-21"></path>
                    <path d="M19.4539636,-0.117714286 L20.0125091,-0.117714286 L20.0125091,3.75142857 L19.4539636,3.75142857 L19.4539636,-0.117714286 Z" id="Fill-22"></path>
                    <path d="M25.1581091,3.84828571 C24.8936727,3.84828571 24.5559273,3.79171429 24.1448727,3.67771429 L24.1448727,3.13428571 C24.5873455,3.33657143 24.9521455,3.43771429 25.2384,3.43771429 C25.4583273,3.43771429 25.6354909,3.38114286 25.7690182,3.268 C25.9034182,3.15485714 25.9697455,3.00571429 25.9697455,2.82057143 C25.9697455,2.66885714 25.9261091,2.54028571 25.8379636,2.434 C25.7506909,2.32771429 25.5883636,2.20942857 25.3527273,2.07828571 L25.0813091,1.924 C24.7461818,1.73542857 24.5096727,1.55885714 24.3717818,1.39171429 C24.2347636,1.22628571 24.1658182,1.03171429 24.1658182,0.810571429 C24.1658182,0.512285714 24.2757818,0.267142857 24.4957091,0.0742857143 C24.7156364,-0.117714286 24.9957818,-0.214571429 25.3370182,-0.214571429 C25.6407273,-0.214571429 25.9601455,-0.164 26.2970182,-0.0654285714 L26.2970182,0.436857143 C25.8824727,0.276571429 25.5726545,0.196 25.3684364,0.196 C25.1755636,0.196 25.0158545,0.246571429 24.8893091,0.347714286 C24.7636364,0.448857143 24.7008,0.575714286 24.7008,0.73 C24.7008,0.858571429 24.7470545,0.972571429 24.8386909,1.072 C24.9312,1.17142857 25.0996364,1.28971429 25.3448727,1.42771429 L25.6267636,1.58457143 C25.968,1.774 26.2053818,1.954 26.3397818,2.12285714 C26.4750545,2.29171429 26.5422545,2.49485714 26.5422545,2.73228571 C26.5422545,3.06828571 26.4157091,3.33828571 26.1634909,3.54228571 C25.9104,3.74628571 25.5752727,3.84828571 25.1581091,3.84828571" id="Fill-23"></path>
                    <path d="M29.0766545,3.75142857 L29.0766545,0.292857143 L27.6794182,0.292857143 L27.6794182,-0.117714286 L31.0333091,-0.117714286 L31.0333091,0.292857143 L29.6360727,0.292857143 L29.6360727,3.75142857 L29.0766545,3.75142857" id="Fill-24"></path>
                    <path d="M32.3720727,-0.117714286 L32.9314909,-0.117714286 L32.9314909,2.32428571 C32.9314909,2.71257143 33.0039273,2.99542857 33.1505455,3.17285714 C33.2971636,3.34942857 33.5301818,3.43771429 33.8496,3.43771429 C34.1620364,3.43771429 34.3837091,3.35457143 34.5137455,3.18828571 C34.6437818,3.02114286 34.7092364,2.74 34.7092364,2.34228571 L34.7092364,-0.117714286 L35.1988364,-0.117714286 L35.1988364,2.33457143 C35.1988364,2.86257143 35.0888727,3.24742857 34.8680727,3.48742857 C34.6464,3.72828571 34.2955636,3.84828571 33.8120727,3.84828571 C33.3207273,3.84828571 32.9576727,3.72314286 32.7237818,3.47457143 C32.4898909,3.22514286 32.3720727,2.83942857 32.3720727,2.31914286 L32.3720727,-0.117714286" id="Fill-25"></path>
                    <path d="M36.9992727,3.75142857 L36.9992727,-0.117714286 L38.3083636,-0.117714286 C38.6984727,-0.117714286 39.0144,-0.0748571429 39.2544,0.0108571429 C39.4952727,0.0957142857 39.7029818,0.240571429 39.8784,0.444571429 C40.1576727,0.768571429 40.2964364,1.19542857 40.2964364,1.72514286 C40.2964364,2.36885714 40.1236364,2.86685714 39.7780364,3.22085714 C39.4315636,3.574 38.9445818,3.75142857 38.3162182,3.75142857 L36.9992727,3.75142857 L36.9992727,3.75142857 Z M37.5578182,3.34085714 L38.2743273,3.34085714 C38.7848727,3.34085714 39.1470545,3.20628571 39.36,2.93542857 C39.5886545,2.64828571 39.7029818,2.26257143 39.7029818,1.77742857 C39.7029818,1.32314286 39.5904,0.965714286 39.3652364,0.706 C39.2282182,0.547428571 39.0650182,0.439428571 38.8747636,0.380285714 C38.6853818,0.322 38.4,0.292857143 38.0186182,0.292857143 L37.5578182,0.292857143 L37.5578182,3.34085714 L37.5578182,3.34085714 Z" id="Fill-26"></path>
                    <path d="M41.8970182,-0.117714286 L42.4555636,-0.117714286 L42.4555636,3.75142857 L41.8970182,3.75142857 L41.8970182,-0.117714286 Z" id="Fill-27"></path>
                    <path d="M45.8731636,3.84828571 C45.3268364,3.84828571 44.8869818,3.66228571 44.5544727,3.29028571 C44.2219636,2.91828571 44.0561455,2.42628571 44.0561455,1.81428571 C44.0561455,1.19885714 44.2228364,0.707714286 44.5570909,0.339142857 C44.8922182,-0.0302857143 45.3381818,-0.214571429 45.8976,-0.214571429 C46.4544,-0.214571429 46.9003636,-0.0302857143 47.2363636,0.337428571 C47.5714909,0.705142857 47.7390545,1.19542857 47.7390545,1.80914286 C47.7390545,2.43485714 47.5714909,2.93114286 47.2363636,3.298 C46.9003636,3.66485714 46.4465455,3.84828571 45.8731636,3.84828571 L45.8731636,3.84828571 Z M45.8810182,3.43771429 C46.2842182,3.43771429 46.5957818,3.29542857 46.8157091,3.01 C47.0356364,2.72542857 47.1456,2.32342857 47.1456,1.804 C47.1456,1.30085714 47.0356364,0.906571429 46.8139636,0.622857143 C46.5931636,0.338285714 46.2877091,0.196 45.8976,0.196 C45.5048727,0.196 45.1994182,0.339142857 44.9794909,0.623714286 C44.7595636,0.909142857 44.6487273,1.30428571 44.6487273,1.81171429 C44.6487273,2.31742857 44.7578182,2.71428571 44.9768727,3.004 C45.1950545,3.29285714 45.4961455,3.43771429 45.8810182,3.43771429 L45.8810182,3.43771429 Z" id="Fill-28"></path>
                </g>
            </g>
        </g>
    </g>
</svg>